{
	"asset":{
		"generator":"Khronos glTF Blender I/O v3.6.27",
		"version":"2.0"
	},
	"scene":0,
	"scenes":[
		{
			"name":"Scene",
			"nodes":[
				0,
				1,
				2
			]
		}
	],
	"nodes":[
		{
			"mesh":0,
			"name":"Cube",
			"scale":[
				0.5,
				0.5,
				0.5
			],
			"translation":[
				-2,
				0.5,
				0.20000000298023224
			]
		},
		{
			"mesh":1,
			"name":"Cube.001",
			"scale":[
				0.5,
				0.5,
				0.5
			],
			"translation":[
				-1.46999990940094,
				1,
				-0.800000011920929
			]
		},
		{
			"mesh":2,
			"name":"Cube.002",
			"scale":[
				0.5,
				0.5,
				0.5
			],
			"translation":[
				-1.46999990940094,
				1,
				0.699999988079071
			]
		}
	],
	"meshes":[
		{
			"name":"Cube",
			"primitives":[
				{
					"attributes":{
						"POSITION":0,
						"NORMAL":1,
						"TEXCOORD_0":2
					},
					"indices":3
				}
			]
		},
		{
			"name":"Cube.001",
			"primitives":[
				{
					"attributes":{
						"POSITION":4,
						"NORMAL":5,
						"TEXCOORD_0":6
					},
					"indices":7
				}
			]
		},
		{
			"name":"Cube.002",
			"primitives":[
				{
					"attributes":{
						"POSITION":8,
						"NORMAL":9,
						"TEXCOORD_0":10
					},
					"indices":11
				}
			]
		}
	],
	"accessors":[
		{
			"bufferView":0,
			"componentType":5126,
			"count":66,
			"max":[
				1,
				3,
				1
			],
			"min":[
				-0.19999980926513672,
				-1,
				-2
			],
			"type":"VEC3"
		},
		{
			"bufferView":1,
			"componentType":5126,
			"count":66,
			"type":"VEC3"
		},
		{
			"bufferView":2,
			"componentType":5126,
			"count":66,
			"type":"VEC2"
		},
		{
			"bufferView":3,
			"componentType":5123,
			"count":120,
			"type":"SCALAR"
		},
		{
			"bufferView":4,
			"componentType":5126,
			"count":127,
			"max":[
				0.09999990463256836,
				2.0019569396972656,
				1.600000023841858
			],
			"min":[
				-0.06000018119812012,
				-2.000000476837158,
				-7.91799247963354e-05
			],
			"type":"VEC3"
		},
		{
			"bufferView":5,
			"componentType":5126,
			"count":127,
			"type":"VEC3"
		},
		{
			"bufferView":6,
			"componentType":5126,
			"count":127,
			"type":"VEC2"
		},
		{
			"bufferView":7,
			"componentType":5123,
			"count":252,
			"type":"SCALAR"
		},
		{
			"bufferView":8,
			"componentType":5126,
			"count":74,
			"max":[
				0,
				2,
				0
			],
			"min":[
				-0.06000018119812012,
				-2,
				-1.5
			],
			"type":"VEC3"
		},
		{
			"bufferView":9,
			"componentType":5126,
			"count":74,
			"type":"VEC3"
		},
		{
			"bufferView":10,
			"componentType":5126,
			"count":74,
			"type":"VEC2"
		},
		{
			"bufferView":11,
			"componentType":5123,
			"count":138,
			"type":"SCALAR"
		}
	],
	"bufferViews":[
		{
			"buffer":0,
			"byteLength":792,
			"byteOffset":0,
			"target":34962
		},
		{
			"buffer":0,
			"byteLength":792,
			"byteOffset":792,
			"target":34962
		},
		{
			"buffer":0,
			"byteLength":528,
			"byteOffset":1584,
			"target":34962
		},
		{
			"buffer":0,
			"byteLength":240,
			"byteOffset":2112,
			"target":34963
		},
		{
			"buffer":0,
			"byteLength":1524,
			"byteOffset":2352,
			"target":34962
		},
		{
			"buffer":0,
			"byteLength":1524,
			"byteOffset":3876,
			"target":34962
		},
		{
			"buffer":0,
			"byteLength":1016,
			"byteOffset":5400,
			"target":34962
		},
		{
			"buffer":0,
			"byteLength":504,
			"byteOffset":6416,
			"target":34963
		},
		{
			"buffer":0,
			"byteLength":888,
			"byteOffset":6920,
			"target":34962
		},
		{
			"buffer":0,
			"byteLength":888,
			"byteOffset":7808,
			"target":34962
		},
		{
			"buffer":0,
			"byteLength":592,
			"byteOffset":8696,
			"target":34962
		},
		{
			"buffer":0,
			"byteLength":276,
			"byteOffset":9288,
			"target":34963
		}
	],
	"buffers":[
		{
			"byteLength":9564,
			"uri":"data:application/octet-stream;base64,"
		}
	]
}
