# Blender 3.6.0
# www.blender.org
mtllib Table.mtl
o Table
v 0.000000 1.000000 1.100000
v 0.800000 1.000000 1.100000
v 0.000000 0.988000 -0.800000
v 0.800000 0.988000 -0.800000
v 0.000000 1.024000 1.100000
v 0.800000 1.024000 1.100000
v 0.000000 1.012000 -0.800000
v 0.800000 1.012000 -0.800000
v 0.000000 1.000000 0.474291
v 0.800000 1.000000 0.474291
v 0.000000 1.024000 0.474291
v 0.800000 1.024000 0.474291
v 0.000000 0.000000 0.474291
v 0.000000 0.000000 1.100000
v 0.800000 0.000000 1.100000
v 0.800000 0.000000 0.474291
v 0.830000 1.000000 0.474291
v 0.830000 0.988000 -0.800000
v 0.830000 1.024000 0.474291
v 0.830000 1.012000 -0.800000
v 0.830000 1.024000 1.100000
v 0.830000 1.000000 1.100000
v 0.800000 0.666667 1.100000
v 0.800000 0.333333 1.100000
v 0.800000 0.333333 0.474291
v 0.800000 0.666667 0.474291
v 0.000000 0.666667 0.474291
v 0.000000 0.333333 0.474291
v 0.000000 0.333333 1.100000
v 0.000000 0.666667 1.100000
v 0.800000 0.314055 0.518391
v 0.800000 0.314055 1.055900
v 0.800000 0.060000 1.055900
v 0.800000 0.060000 0.518391
v 0.800000 0.980721 0.518391
v 0.800000 0.980721 1.055900
v 0.800000 0.700000 1.055900
v 0.800000 0.700000 0.518391
v 0.800000 0.647388 0.518391
v 0.800000 0.647388 1.055900
v 0.800000 0.352612 1.055900
v 0.800000 0.352612 0.518391
v 0.780000 0.314055 1.055900
v 0.780000 0.314055 0.518391
v 0.780000 0.060000 0.518391
v 0.780000 0.060000 1.055900
v 0.780000 0.980721 1.055900
v 0.780000 0.980721 0.518391
v 0.780000 0.700000 0.518391
v 0.780000 0.700000 1.055900
v 0.780000 0.647388 1.055900
v 0.780000 0.647388 0.518391
v 0.780000 0.352612 0.518391
v 0.780000 0.352612 1.055900
v 0.800000 0.989200 -0.765934
v 0.800000 1.013200 -0.700000
v 0.000000 0.989200 -0.765934
v 0.000000 1.013200 -0.700000
v 0.830000 0.989200 -0.700000
v 0.830000 1.013200 -0.700000
v 0.800000 0.000142 -0.754066
v 0.800000 -0.001058 -0.788131
v 0.000000 -0.001058 -0.788131
v 0.000000 0.000142 -0.754066
v 0.800000 0.988000 -0.820000
v 0.000000 0.988000 -0.820000
v 0.800000 1.012000 -0.820000
v 0.000000 1.012000 -0.820000
v 0.830000 0.988000 -0.820000
v 0.830000 1.012000 -0.820000
v 0.047312 0.132611 0.474291
v 0.075403 0.179027 0.474291
v 0.292789 0.044707 0.474291
v 0.261399 0.000455 0.474291
v 0.075403 0.179027 -0.767847
v 0.047312 0.132611 -0.767847
v 0.261399 0.000455 -0.767847
v 0.292789 0.044707 -0.767847
v 0.780000 0.207805 0.775975
v 0.780000 0.207805 0.798315
v 0.780000 0.166250 0.798315
v 0.780000 0.166250 0.775975
v 0.780000 0.874472 0.775975
v 0.780000 0.874472 0.798315
v 0.780000 0.806249 0.798315
v 0.780000 0.806249 0.775975
v 0.780000 0.541139 0.775975
v 0.780000 0.541139 0.798315
v 0.780000 0.458861 0.798315
v 0.780000 0.458861 0.775975
v 0.768628 0.196511 0.792244
v 0.768628 0.196511 0.782047
v 0.768628 0.177543 0.782047
v 0.768628 0.177543 0.792244
v 0.768628 0.855931 0.792244
v 0.768628 0.855931 0.782047
v 0.768628 0.824791 0.782047
v 0.768628 0.824791 0.792244
v 0.768628 0.518778 0.792244
v 0.768628 0.518778 0.782047
v 0.768628 0.481222 0.782047
v 0.768628 0.481222 0.792244
vn 1.0000 -0.0000 -0.0000
vn -0.0000 0.9999 -0.0106
vn -0.0000 1.0000 -0.0060
vn -0.0000 -1.0000 -0.0000
vn -0.0033 -1.0000 0.0059
vn -0.0049 -1.0000 0.0045
vn -1.0000 -0.0000 -0.0000
vn -0.0000 1.0000 -0.0000
vn -0.0000 -0.0000 1.0000
vn -0.0000 1.0000 -0.0046
vn 0.5256 0.8507 -0.0000
vn -0.0122 -0.9998 0.0140
vn -0.0066 -1.0000 0.0060
vn -0.0098 -0.9999 0.0089
vn -0.0112 -0.9999 0.0102
vn -0.0000 -0.0000 -1.0000
vn 0.4710 -0.0000 0.8821
vn 0.4710 -0.0000 -0.8821
vn 0.7047 0.7095 -0.0000
vn -0.0000 -1.0000 0.0087
vn -0.0000 -0.9994 0.0352
vn -0.0000 0.0120 0.9999
vn -0.0000 -0.0120 -0.9999
vn -0.8555 0.5178 -0.0000
vn 0.8156 -0.5786 -0.0000
vn -0.5253 -0.8509 -0.0000
vn 0.9948 -0.1019 -0.0000
vn 0.9948 0.1019 -0.0000
vn 0.9684 -0.2494 -0.0000
vn 0.9684 0.2494 -0.0000
vn 0.7047 -0.7095 -0.0000
vn 0.8524 0.5228 -0.0000
vn 0.8524 -0.5228 -0.0000
vt 1.000000 1.000000
vt 1.000000 0.935200
vt 0.000000 0.935200
vt 1.000000 0.935200
vt 0.000000 1.000000
vt 1.000000 0.000000
vt 1.000000 0.352000
vt 0.000000 0.352000
vt 0.000000 0.000000
vt 0.000000 0.935200
vt 1.000000 0.341155
vt 0.856784 0.352000
vt 0.856784 0.352000
vt 1.000000 0.935200
vt 1.000000 0.010845
vt 1.000000 0.010845
vt 1.000000 0.010845
vt 1.000000 0.341155
vt 1.000000 0.341155
vt 1.000000 0.275862
vt 1.000000 0.275862
vt 1.000000 0.076138
vt 1.000000 0.076138
vt 1.000000 0.076138
vt 1.000000 0.275862
vt 0.143216 0.352000
vt 0.143216 0.352000
vt 1.000000 0.076138
vt 1.000000 0.275862
vt 1.000000 0.275862
vt 1.000000 0.076138
s 1
f 4/1/1 55/2/1 61/2/1 62/1/1
f 58/3/2 56/4/2 8/1/3 7/5/3
f 2/6/4 10/7/5 17/7/6 22/6/4
f 9/8/7 1/9/7 5/9/7 11/8/7
f 7/5/3 8/1/3 67/1/8 68/5/8
f 1/9/9 2/6/9 6/6/9 5/9/9
f 57/10/7 9/8/7 11/8/7 58/3/7
f 12/7/10 6/6/8 21/6/8 19/7/10
f 5/9/8 6/6/8 12/7/10 11/8/10
f 38/11/9 35/11/9 48/11/9 49/11/9
f 14/9/4 13/8/4 16/7/4 15/6/4
f 29/9/7 28/8/7 13/8/7 14/9/7
f 24/6/9 29/9/9 14/9/9 15/6/9
f 72/12/11 73/13/11 78/13/11 75/12/11
f 59/14/1 18/1/1 20/1/1 60/14/1
f 22/6/1 17/7/1 19/7/1 21/6/1
f 55/2/12 4/1/13 18/1/14 59/14/15
f 6/6/9 2/6/9 22/6/9 21/6/9
f 3/5/7 7/5/7 68/5/7 66/5/7
f 56/4/2 12/7/10 19/7/10 60/14/2
f 9/8/16 10/7/16 26/7/16 27/8/16
f 27/8/16 26/7/16 25/7/16 28/8/16
f 2/6/9 1/9/9 30/9/9 23/6/9
f 23/6/9 30/9/9 29/9/9 24/6/9
f 1/9/7 9/8/7 27/8/7 30/9/7
f 30/9/7 27/8/7 28/8/7 29/9/7
f 32/15/16 33/16/16 46/16/16 43/15/16
f 41/17/8 42/18/8 53/18/8 54/17/8
f 25/7/1 24/6/1 32/15/1 31/19/1
f 24/6/1 15/6/1 33/16/1 32/15/1
f 15/6/1 16/7/1 34/18/1 33/16/1
f 16/7/1 25/7/1 31/19/1 34/18/1
f 10/7/1 2/6/1 36/17/1 35/11/1
f 2/6/1 23/6/1 37/17/1 36/17/1
f 23/6/1 26/7/1 38/11/1 37/17/1
f 26/7/1 10/7/1 35/11/1 38/11/1
f 26/7/1 23/6/1 40/17/1 39/11/1
f 23/6/1 24/6/1 41/17/1 40/17/1
f 24/6/1 25/7/1 42/18/1 41/17/1
f 25/7/1 26/7/1 39/11/1 42/18/1
f 90/20/17 87/21/17 100/21/17 101/20/17
f 84/22/18 85/23/18 98/23/18 95/22/18
f 81/24/19 82/25/19 93/25/19 94/24/19
f 39/11/4 40/17/4 51/17/4 52/11/4
f 33/16/8 34/18/8 45/18/8 46/16/8
f 36/17/16 37/17/16 50/17/16 47/17/16
f 42/18/9 39/11/9 52/11/9 53/18/9
f 31/19/4 32/15/4 43/15/4 44/19/4
f 37/17/8 38/11/8 49/11/8 50/17/8
f 40/17/16 41/17/16 54/17/16 51/17/16
f 34/18/9 31/19/9 44/19/9 45/18/9
f 35/11/4 36/17/4 47/17/4 48/11/4
f 8/1/3 56/4/2 60/14/2 20/1/3
f 10/7/5 55/2/12 59/14/15 17/7/6
f 17/7/1 59/14/1 60/14/1 19/7/1
f 3/5/7 57/10/7 58/3/7 7/5/7
f 11/8/10 12/7/10 56/4/2 58/3/2
f 9/8/20 57/10/20 55/2/12 10/7/5
f 64/10/21 63/5/21 62/1/21 61/2/21
f 57/10/7 3/5/7 63/5/7 64/10/7
f 55/2/22 57/10/22 64/10/22 61/2/22
f 3/5/23 4/1/23 62/1/23 63/5/23
f 65/1/16 66/5/16 68/5/16 67/1/16
f 65/1/16 67/1/16 70/1/16 69/1/16
f 18/1/14 4/1/13 65/1/4 69/1/4
f 4/1/13 3/5/4 66/5/4 65/1/4
f 20/1/1 18/1/1 69/1/1 70/1/1
f 8/1/3 20/1/3 70/1/8 67/1/8
f 28/8/16 25/7/16 72/12/16 71/26/16
f 25/7/16 16/7/16 73/13/16 72/12/16
f 16/7/16 13/8/16 74/27/16 73/13/16
f 13/8/16 28/8/16 71/26/16 74/27/16
f 76/26/16 75/12/16 78/13/16 77/27/16
f 71/26/24 72/12/24 75/12/24 76/26/24
f 73/13/25 74/27/25 77/27/25 78/13/25
f 74/27/26 71/26/26 76/26/26 77/27/26
f 44/19/1 43/15/1 80/28/1 79/29/1
f 43/15/1 46/16/1 81/24/1 80/28/1
f 46/16/1 45/18/1 82/25/1 81/24/1
f 45/18/1 44/19/1 79/29/1 82/25/1
f 48/11/1 47/17/1 84/22/1 83/25/1
f 47/17/1 50/17/1 85/23/1 84/22/1
f 50/17/1 49/11/1 86/30/1 85/23/1
f 49/11/1 48/11/1 83/25/1 86/30/1
f 52/11/1 51/17/1 88/31/27 87/21/27
f 51/17/1 54/17/1 89/31/28 88/31/27
f 54/17/1 53/18/1 90/20/28 89/31/28
f 53/18/1 52/11/1 87/21/27 90/20/28
f 92/29/1 91/28/1 94/24/1 93/25/1
f 96/25/1 95/22/1 98/23/1 97/30/1
f 100/21/29 99/31/29 102/31/30 101/20/30
f 79/29/31 80/28/31 91/28/31 92/29/31
f 85/23/32 86/30/32 97/30/32 98/23/32
f 88/31/18 89/31/18 102/31/18 99/31/18
f 82/25/17 79/29/17 92/29/17 93/25/17
f 83/25/33 84/22/33 95/22/33 96/25/33
f 89/31/28 90/20/28 101/20/30 102/31/30
f 80/28/18 81/24/18 94/24/18 91/28/18
f 86/30/17 83/25/17 96/25/17 97/30/17
f 87/21/27 88/31/27 99/31/29 100/21/29
