# Blender 3.6.0
# www.blender.org
mtllib WhiteBoard.mtl
o Whiteboard
v -1.000000 2.000000 3.000000
v -1.000000 1.000000 3.000000
v -1.000000 2.000000 1.000000
v -1.000000 1.000000 1.000000
v -1.040000 2.000000 1.000000
v -1.040000 2.000000 3.000000
v -1.040000 1.000000 3.000000
v -1.040000 1.000000 1.000000
v -1.021585 1.964026 1.035974
v -1.021585 1.964026 2.964026
v -1.021584 1.035974 2.964026
v -1.021584 1.035974 1.035974
v -1.017660 1.964026 2.964026
v -1.000000 1.981686 2.981686
v -1.003050 1.971411 2.971411
v -1.000966 1.976249 2.976249
v -1.000000 1.981686 1.018314
v -1.017660 1.964026 1.035974
v -1.000966 1.976249 1.023751
v -1.003050 1.971411 1.028589
v -1.000000 1.018314 1.018314
v -1.017660 1.035974 1.035974
v -1.000966 1.023751 1.023751
v -1.003050 1.028589 1.028589
v -1.017660 1.035974 2.964026
v -1.000000 1.018314 2.981686
v -1.003050 1.028589 2.971411
v -1.000966 1.023751 2.976249
vn 1.0000 -0.0000 -0.0000
vn -0.0000 -0.0000 1.0000
vn -0.0000 -0.0000 -1.0000
vn -0.0000 1.0000 -0.0000
vn -0.0000 -1.0000 -0.0000
vn -1.0000 -0.0000 -0.0000
vn -0.4511 0.8925 -0.0000
vn -0.9184 0.3957 -0.0000
vn -0.9846 0.1749 -0.0000
vn -0.4511 -0.0000 0.8925
vn -0.9184 -0.0000 0.3957
vn -0.9846 -0.0000 0.1749
vn -0.4511 -0.0000 -0.8925
vn -0.9184 -0.0000 -0.3957
vn -0.9846 -0.0000 -0.1749
vn -0.4511 -0.8925 -0.0000
vn -0.9184 -0.3957 -0.0000
vn -0.9846 -0.1749 -0.0000
vt 0.000000 0.000000
vt 1.000000 0.000000
vt 1.000000 1.000000
vt 0.000000 1.000000
vt 0.964026 0.017987
vt 0.035974 0.017987
vt 0.981686 0.009157
vt 0.981686 0.990843
vt 0.964026 0.982013
vt 0.018314 0.990843
vt 0.018314 0.009157
vt 0.035974 0.982013
vt 0.035974 0.982013
vt 0.018314 0.990843
vt 0.981686 0.009157
vt 0.032282 0.016141
vt 0.032282 0.983859
vt 0.023751 0.011876
vt 0.023751 0.988124
vt 0.967718 0.016141
vt 0.976249 0.011876
vt 0.967718 0.983859
vt 0.976249 0.988124
s 0
f 6/1/1 7/2/1 8/3/1 5/4/1
f 4/3/2 3/4/2 5/4/2 8/3/2
f 1/1/3 2/2/3 7/2/3 6/1/3
f 2/2/4 4/3/4 8/3/4 7/2/4
f 3/4/5 1/1/5 6/1/5 5/4/5
f 25/5/2 13/6/2 10/6/2 11/5/2
f 4/3/6 2/2/6 26/7/6 21/8/6
f 22/9/5 25/5/5 11/5/5 12/9/5
f 1/1/6 3/4/6 17/10/6 14/11/6
f 10/6/6 9/12/6 12/9/6 11/5/6
f 18/13/3 22/9/3 12/9/3 9/12/3
f 3/4/6 4/3/6 21/8/6 17/14/6
f 2/2/6 1/1/6 14/11/6 26/15/6
f 18/13/7 13/6/7 15/16/7 20/17/7
f 20/17/8 15/16/8 16/18/8 19/19/8
f 19/19/9 16/18/9 14/11/9 17/10/9
f 13/6/10 25/5/10 27/20/10 15/16/10
f 15/16/11 27/20/11 28/21/11 16/18/11
f 16/18/12 28/21/12 26/15/12 14/11/12
f 22/9/13 18/13/13 20/17/13 24/22/13
f 24/22/14 20/17/14 19/19/14 23/23/14
f 23/23/15 19/19/15 17/14/15 21/8/15
f 25/5/16 22/9/16 24/22/16 27/20/16
f 27/20/17 24/22/17 23/23/17 28/21/17
f 28/21/18 23/23/18 21/8/18 26/7/18
f 13/6/4 18/13/4 9/12/4 10/6/4
